# xmcd CD database file
#
# Track frame offsets:
#	150
#	9011
#	30373
#	53774
#	72508
#	86481
#	108273
#	118414
#	126799
#
# Disc length: 1954 seconds
#
# Revision: 1
# Processed by: cddbd v1.5.2PL0 Copyright (c) Steve Scherf et al.
# Submitted via: CDex 1.51
#
DISCID=6b07a009
DTITLE=And Say We Did - Final Demonstration
DYEAR=2006
DGENRE=Instrumental Rock
TTITLE0=Dietiss
TTITLE1=Green stick
TTITLE2=Lame gull
TTITLE3=Tinkerbell
TTITLE4=Drive it like you stole it
TTITLE5=Ironic
TTITLE6=Jungle thing
TTITLE7=Noggin
TTITLE8=Brillo Pad
EXTD=ripped/spread by cleve YEAR: 2006
EXTT0=
EXTT1=
EXTT2=
EXTT3=
EXTT4=
EXTT5=
EXTT6=
EXTT7=
EXTT8=
PLAYORDER=
